<svg width="195" height="169" viewBox="0 0 195 169" fill="none" xmlns="http://www.w3.org/2000/svg">
<path d="M52.4059 0.960815C51.8568 1.37261 51.445 24.5704 51.445 52.2978V102.811L58.8573 104.458C79.5843 108.988 114.999 101.164 134.216 87.5749L137.922 84.9669V55.1804V25.394L125.156 12.6283L112.528 -3.8147e-05H82.8786C66.5441 -3.8147e-05 52.8177 0.411758 52.4059 0.960815ZM122.136 16.4717L127.49 21.9623H121.725H115.959V16.4717C115.959 13.4519 116.097 10.9811 116.371 10.9811C116.646 10.9811 119.254 13.4519 122.136 16.4717ZM125.568 41.8657C125.568 43.6502 121.587 43.9247 94.4089 43.6502C71.0739 43.3756 63.2498 42.8266 62.7007 41.4539C62.2889 40.2185 69.1522 39.8067 93.8598 39.8067C121.313 39.8067 125.568 40.0813 125.568 41.8657ZM125.568 48.729C125.568 50.5134 121.176 50.7879 93.9971 50.7879C65.1715 50.7879 60.6417 50.3761 63.387 47.6308C63.7988 47.0818 78.0744 46.67 94.9579 46.67C121.313 46.67 125.568 46.9445 125.568 48.729ZM125.568 56.2785C125.568 57.1021 114.175 57.6512 93.9971 57.6512C73.8192 57.6512 62.4262 57.1021 62.4262 56.2785C62.4262 55.4549 73.8192 54.9059 93.9971 54.9059C114.175 54.9059 125.568 55.4549 125.568 56.2785ZM125.568 63.8281C125.568 65.6125 121.587 65.8871 94.4089 65.6125C71.0739 65.338 63.2498 64.7889 62.7007 63.4163C62.2889 62.1809 69.1522 61.7691 93.8598 61.7691C121.313 61.7691 125.568 62.0436 125.568 63.8281ZM125.568 70.6913C125.568 72.4758 121.176 72.7503 93.9971 72.7503C65.1715 72.7503 60.6417 72.3385 63.387 69.5932C63.7988 69.0441 78.0744 68.6324 94.9579 68.6324C121.313 68.6324 125.568 68.9069 125.568 70.6913ZM125.293 77.8291C125.705 79.2017 118.842 79.6135 94.1344 79.6135C65.1715 79.6135 60.6417 79.2017 63.387 76.3192C63.9361 75.9074 77.9371 75.6329 94.5462 75.7701C117.195 76.0447 124.744 76.5937 125.293 77.8291Z" fill="#6B4EFF"/>
<path d="M152.609 49.6898C164.139 62.4555 158.374 79.6136 138.059 93.2028C118.43 106.106 97.1543 112.42 73.4075 112.42C45.9545 112.42 28.9337 100.752 33.1889 84.6924C34.1497 81.5353 34.5615 78.79 34.287 78.5154C34.1497 78.2409 32.5026 80.0254 30.8554 82.3589C26.7374 88.124 25.5021 101.576 28.6591 106.38C31.8162 111.047 41.013 116.675 49.3861 118.871C58.4456 121.342 81.7707 123.072 93.6018 120.115C124.397 112.42 142.935 102.886 157.825 88.2613C165.512 80.7117 168.12 75.0838 168.12 66.9852C167.983 59.2984 165.787 55.455 158.512 50.6507C151.511 45.8464 148.766 45.4346 152.609 49.6898Z" fill="#9990FF"/>
<path d="M3.48 160.881C2.8304 160.881 2.33547 160.711 1.9952 160.371C1.65493 160.03 1.4848 159.528 1.4848 158.863V146.219C1.4848 145.538 1.65493 145.02 1.9952 144.664C2.33547 144.293 2.784 144.107 3.3408 144.107C3.83573 144.107 4.2224 144.2 4.5008 144.386C4.7792 144.571 5.08853 144.881 5.4288 145.314L12.7832 154.501H12.1336V146.103C12.1336 145.453 12.296 144.958 12.6208 144.618C12.9611 144.278 13.456 144.107 14.1056 144.107C14.7552 144.107 15.2424 144.278 15.5672 144.618C15.9075 144.958 16.0776 145.453 16.0776 146.103V158.955C16.0776 159.543 15.9229 160.015 15.6136 160.371C15.3043 160.711 14.8867 160.881 14.3608 160.881C13.8349 160.881 13.4173 160.788 13.108 160.603C12.8141 160.402 12.4971 160.092 12.1568 159.675L4.8024 150.464H5.452V158.863C5.452 159.528 5.28187 160.03 4.9416 160.371C4.6168 160.711 4.1296 160.881 3.48 160.881ZM24.7964 160.927C23.5282 160.927 22.4223 160.688 21.4788 160.208C20.5354 159.729 19.8007 159.041 19.2748 158.143C18.749 157.246 18.486 156.187 18.486 154.965C18.486 154.037 18.633 153.21 18.9268 152.483C19.2207 151.74 19.646 151.114 20.2028 150.603C20.7596 150.078 21.4247 149.683 22.198 149.42C22.9714 149.142 23.8375 149.003 24.7964 149.003C26.0647 149.003 27.1706 149.242 28.114 149.722C29.0575 150.201 29.7844 150.89 30.2949 151.787C30.8207 152.668 31.0836 153.728 31.0836 154.965C31.0836 155.878 30.9367 156.705 30.6428 157.447C30.349 158.19 29.9236 158.824 29.3668 159.35C28.8255 159.86 28.1604 160.255 27.3716 160.533C26.5983 160.796 25.7399 160.927 24.7964 160.927ZM24.7964 157.888C25.214 157.888 25.5852 157.788 25.91 157.587C26.2348 157.37 26.4823 157.053 26.6524 156.635C26.838 156.202 26.9308 155.646 26.9308 154.965C26.9308 153.929 26.7298 153.186 26.3276 152.738C25.9255 152.274 25.4151 152.042 24.7964 152.042C24.3788 152.042 24.0076 152.142 23.6828 152.343C23.358 152.545 23.1028 152.862 22.9172 153.295C22.7316 153.712 22.6388 154.269 22.6388 154.965C22.6388 155.986 22.8399 156.728 23.242 157.192C23.6442 157.656 24.1623 157.888 24.7964 157.888ZM39.0802 160.927C37.9202 160.927 36.9613 160.75 36.2034 160.394C35.461 160.038 34.9042 159.505 34.533 158.793C34.1618 158.066 33.9762 157.161 33.9762 156.079V152.297H33.1874C32.6925 152.297 32.3058 152.166 32.0274 151.903C31.7645 151.64 31.633 151.261 31.633 150.766C31.633 150.271 31.7645 149.9 32.0274 149.652C32.3058 149.389 32.6925 149.258 33.1874 149.258H33.9762V147.819C33.9762 147.139 34.1541 146.621 34.5098 146.265C34.8656 145.909 35.376 145.731 36.041 145.731C36.7061 145.731 37.2165 145.909 37.5722 146.265C37.928 146.621 38.1058 147.139 38.1058 147.819V149.258H40.0082C40.5186 149.258 40.9053 149.389 41.1682 149.652C41.4466 149.9 41.5858 150.271 41.5858 150.766C41.5858 151.261 41.4466 151.64 41.1682 151.903C40.9053 152.166 40.5186 152.297 40.0082 152.297H38.1058V155.939C38.1058 156.512 38.2373 156.937 38.5002 157.215C38.7786 157.478 39.2117 157.61 39.7994 157.61C40.016 157.61 40.2248 157.587 40.4258 157.54C40.6269 157.494 40.8125 157.471 40.9826 157.471C41.2301 157.455 41.4312 157.533 41.5858 157.703C41.7405 157.857 41.8178 158.221 41.8178 158.793C41.8178 159.257 41.7482 159.651 41.609 159.976C41.4698 160.286 41.2224 160.51 40.8666 160.649C40.6501 160.726 40.3562 160.788 39.985 160.835C39.6138 160.897 39.3122 160.927 39.0802 160.927ZM49.3091 160.927C47.9171 160.927 46.7107 160.688 45.6899 160.208C44.6845 159.713 43.9112 159.017 43.3699 158.12C42.8285 157.223 42.5579 156.164 42.5579 154.942C42.5579 153.766 42.8131 152.738 43.3235 151.856C43.8493 150.959 44.5608 150.263 45.4579 149.768C46.3704 149.258 47.4067 149.003 48.5667 149.003C49.4173 149.003 50.1907 149.142 50.8867 149.42C51.5827 149.683 52.1781 150.078 52.6731 150.603C53.168 151.114 53.5392 151.733 53.7867 152.459C54.0496 153.186 54.1811 153.998 54.1811 154.895C54.1811 155.205 54.096 155.437 53.9259 155.591C53.7557 155.731 53.4851 155.8 53.1139 155.8H46.0147V153.851H51.1651L50.7939 154.153C50.7939 153.581 50.7165 153.117 50.5619 152.761C50.4072 152.405 50.1752 152.135 49.8659 151.949C49.572 151.763 49.2008 151.671 48.7523 151.671C48.2728 151.671 47.8552 151.787 47.4995 152.019C47.1592 152.235 46.8963 152.56 46.7107 152.993C46.5251 153.426 46.4323 153.967 46.4323 154.617V154.826C46.4323 155.924 46.672 156.713 47.1515 157.192C47.6464 157.656 48.4043 157.888 49.4251 157.888C49.7653 157.888 50.152 157.85 50.5851 157.772C51.0336 157.679 51.4589 157.556 51.8611 157.401C52.2632 157.246 52.6112 157.223 52.9051 157.331C53.1989 157.424 53.4232 157.594 53.5779 157.842C53.748 158.074 53.8408 158.345 53.8563 158.654C53.8717 158.948 53.8021 159.242 53.6475 159.535C53.4928 159.814 53.2376 160.03 52.8819 160.185C52.3405 160.433 51.7605 160.618 51.1419 160.742C50.5387 160.866 49.9277 160.927 49.3091 160.927ZM58.1798 156.055C57.7158 156.055 57.3291 155.901 57.0198 155.591C56.7105 155.282 56.5558 154.895 56.5558 154.431C56.5558 153.967 56.7105 153.589 57.0198 153.295C57.3291 152.985 57.7158 152.831 58.1798 152.831H62.7734C63.2374 152.831 63.6241 152.985 63.9334 153.295C64.2427 153.589 64.3974 153.967 64.3974 154.431C64.3974 154.895 64.2427 155.282 63.9334 155.591C63.6241 155.901 63.2374 156.055 62.7734 156.055H58.1798ZM72.2038 160.881C71.5233 160.881 70.9974 160.695 70.6262 160.324C70.255 159.938 70.0694 159.404 70.0694 158.723V147.796H66.427C65.8548 147.796 65.414 147.649 65.1046 147.355C64.8108 147.046 64.6638 146.613 64.6638 146.056C64.6638 145.484 64.8108 145.051 65.1046 144.757C65.414 144.463 65.8548 144.316 66.427 144.316H77.9806C78.5529 144.316 78.986 144.463 79.2798 144.757C79.5892 145.051 79.7438 145.484 79.7438 146.056C79.7438 146.613 79.5892 147.046 79.2798 147.355C78.986 147.649 78.5529 147.796 77.9806 147.796H74.3382V158.723C74.3382 159.404 74.1604 159.938 73.8046 160.324C73.4489 160.695 72.9153 160.881 72.2038 160.881ZM83.2343 160.927C82.3527 160.927 81.5717 160.765 80.8911 160.44C80.2261 160.115 79.7002 159.675 79.3135 159.118C78.9423 158.546 78.7567 157.896 78.7567 157.169C78.7567 156.334 78.9733 155.677 79.4063 155.197C79.8394 154.718 80.5354 154.377 81.4943 154.176C82.4533 153.96 83.7293 153.851 85.3223 153.851H86.5983V155.8H85.3223C84.7191 155.8 84.2165 155.847 83.8143 155.939C83.4277 156.017 83.1415 156.148 82.9559 156.334C82.7703 156.504 82.6775 156.728 82.6775 157.007C82.6775 157.362 82.8013 157.656 83.0487 157.888C83.3117 158.12 83.6829 158.236 84.1623 158.236C84.549 158.236 84.8893 158.151 85.1831 157.981C85.4925 157.811 85.7399 157.579 85.9255 157.285C86.1111 156.976 86.2039 156.62 86.2039 156.218V153.527C86.2039 152.97 86.057 152.575 85.7631 152.343C85.4847 152.111 84.9975 151.995 84.3015 151.995C83.9303 151.995 83.5127 152.042 83.0487 152.135C82.5847 152.212 82.0666 152.359 81.4943 152.575C81.0767 152.73 80.721 152.753 80.4271 152.645C80.1333 152.537 79.9013 152.351 79.7311 152.088C79.5765 151.825 79.4991 151.539 79.4991 151.23C79.5146 150.921 79.6151 150.627 79.8007 150.348C80.0018 150.07 80.3034 149.853 80.7055 149.699C81.4479 149.42 82.1285 149.235 82.7471 149.142C83.3813 149.049 83.9613 149.003 84.4871 149.003C85.7554 149.003 86.7994 149.188 87.6191 149.559C88.4543 149.915 89.073 150.472 89.4751 151.23C89.8927 151.972 90.1015 152.931 90.1015 154.107V158.793C90.1015 159.474 89.9391 159.992 89.6143 160.347C89.2895 160.703 88.8178 160.881 88.1991 160.881C87.565 160.881 87.0778 160.703 86.7375 160.347C86.4127 159.992 86.2503 159.474 86.2503 158.793V158.19L86.3895 158.515C86.3122 159.01 86.1343 159.435 85.8559 159.791C85.5775 160.146 85.2141 160.425 84.7655 160.626C84.317 160.827 83.8066 160.927 83.2343 160.927Z" fill="#6B4EFF"/>
<path d="M94.7267 160.881C94.0771 160.881 93.5744 160.703 93.2187 160.347C92.863 159.992 92.6851 159.474 92.6851 158.793V146.195C92.6851 145.515 92.863 144.997 93.2187 144.641C93.5744 144.285 94.0771 144.107 94.7267 144.107C95.3918 144.107 95.9022 144.285 96.2579 144.641C96.6291 144.997 96.8147 145.515 96.8147 146.195V153.851H96.8611L99.6915 150.418C100.078 149.954 100.434 149.614 100.759 149.397C101.099 149.165 101.555 149.049 102.127 149.049C102.7 149.049 103.141 149.188 103.45 149.467C103.759 149.745 103.922 150.093 103.937 150.511C103.953 150.928 103.782 151.346 103.427 151.763L100.364 155.383V153.944L103.798 158.259C104.138 158.693 104.277 159.118 104.215 159.535C104.154 159.938 103.953 160.262 103.612 160.51C103.287 160.757 102.87 160.881 102.359 160.881C101.741 160.881 101.246 160.773 100.875 160.556C100.503 160.324 100.132 159.969 99.7611 159.489L96.8611 155.916H96.8147V158.793C96.8147 160.185 96.1187 160.881 94.7267 160.881ZM108.416 160.881C107.767 160.881 107.264 160.688 106.908 160.301C106.553 159.914 106.375 159.358 106.375 158.631V151.299C106.375 150.573 106.553 150.016 106.908 149.629C107.264 149.242 107.767 149.049 108.416 149.049C109.082 149.049 109.592 149.242 109.948 149.629C110.319 150.016 110.504 150.573 110.504 151.299V158.631C110.504 159.358 110.327 159.914 109.971 160.301C109.615 160.688 109.097 160.881 108.416 160.881ZM108.416 147.402C107.69 147.402 107.125 147.232 106.723 146.891C106.336 146.551 106.143 146.056 106.143 145.407C106.143 144.773 106.336 144.285 106.723 143.945C107.125 143.605 107.69 143.435 108.416 143.435C109.174 143.435 109.747 143.605 110.133 143.945C110.52 144.285 110.713 144.773 110.713 145.407C110.713 146.056 110.52 146.551 110.133 146.891C109.747 147.232 109.174 147.402 108.416 147.402ZM115.173 160.881C114.524 160.881 114.021 160.703 113.665 160.347C113.31 159.992 113.132 159.474 113.132 158.793V151.114C113.132 150.449 113.302 149.938 113.642 149.583C113.998 149.227 114.501 149.049 115.15 149.049C115.8 149.049 116.295 149.227 116.635 149.583C116.975 149.938 117.145 150.449 117.145 151.114V152.204L116.89 151.253C117.261 150.526 117.787 149.969 118.468 149.583C119.164 149.196 119.953 149.003 120.834 149.003C121.747 149.003 122.497 149.181 123.085 149.536C123.672 149.877 124.113 150.418 124.407 151.16C124.701 151.887 124.848 152.807 124.848 153.921V158.793C124.848 159.474 124.67 159.992 124.314 160.347C123.959 160.703 123.448 160.881 122.783 160.881C122.118 160.881 121.608 160.703 121.252 160.347C120.896 159.992 120.718 159.474 120.718 158.793V154.083C120.718 153.387 120.595 152.893 120.347 152.599C120.115 152.305 119.767 152.158 119.303 152.158C118.684 152.158 118.189 152.359 117.818 152.761C117.447 153.148 117.261 153.674 117.261 154.339V158.793C117.261 160.185 116.565 160.881 115.173 160.881ZM133.094 165.103C132.244 165.103 131.447 165.042 130.705 164.918C129.962 164.81 129.32 164.647 128.779 164.431C128.33 164.276 128.013 164.052 127.828 163.758C127.642 163.464 127.557 163.155 127.573 162.83C127.588 162.505 127.673 162.211 127.828 161.948C127.998 161.685 128.222 161.492 128.501 161.368C128.779 161.26 129.088 161.268 129.429 161.391C130.109 161.67 130.728 161.848 131.285 161.925C131.841 162.018 132.313 162.064 132.7 162.064C133.643 162.064 134.347 161.863 134.811 161.461C135.29 161.074 135.53 160.463 135.53 159.628V158.167H135.716C135.484 158.816 135.012 159.35 134.301 159.767C133.589 160.17 132.816 160.371 131.981 160.371C130.96 160.371 130.07 160.139 129.313 159.675C128.555 159.195 127.959 158.53 127.526 157.679C127.109 156.829 126.9 155.831 126.9 154.687C126.9 153.821 127.024 153.039 127.271 152.343C127.518 151.647 127.859 151.052 128.292 150.557C128.74 150.062 129.274 149.683 129.893 149.42C130.527 149.142 131.223 149.003 131.981 149.003C132.847 149.003 133.62 149.204 134.301 149.606C134.997 150.008 135.461 150.534 135.693 151.183L135.461 152.135V151.114C135.461 150.449 135.638 149.938 135.994 149.583C136.365 149.227 136.876 149.049 137.525 149.049C138.175 149.049 138.67 149.227 139.01 149.583C139.366 149.938 139.544 150.449 139.544 151.114V159.141C139.544 161.121 138.987 162.606 137.873 163.595C136.76 164.601 135.167 165.103 133.094 165.103ZM133.257 157.331C133.721 157.331 134.115 157.231 134.44 157.03C134.765 156.813 135.02 156.512 135.205 156.125C135.391 155.723 135.484 155.243 135.484 154.687C135.484 153.851 135.283 153.202 134.881 152.738C134.478 152.274 133.937 152.042 133.257 152.042C132.824 152.042 132.437 152.15 132.097 152.367C131.756 152.568 131.493 152.869 131.308 153.271C131.138 153.658 131.053 154.13 131.053 154.687C131.053 155.522 131.254 156.171 131.656 156.635C132.058 157.099 132.592 157.331 133.257 157.331ZM150.102 160.881C149.623 160.881 149.221 160.773 148.896 160.556C148.571 160.324 148.37 160.015 148.293 159.628C148.215 159.226 148.285 158.778 148.502 158.283L154.278 145.847C154.557 145.244 154.897 144.803 155.299 144.525C155.717 144.247 156.188 144.107 156.714 144.107C157.24 144.107 157.696 144.247 158.083 144.525C158.485 144.803 158.833 145.244 159.127 145.847L164.904 158.283C165.151 158.778 165.236 159.226 165.159 159.628C165.097 160.03 164.904 160.34 164.579 160.556C164.27 160.773 163.883 160.881 163.419 160.881C162.8 160.881 162.321 160.742 161.981 160.463C161.656 160.185 161.362 159.737 161.099 159.118L159.846 156.171L161.47 157.355H151.912L153.559 156.171L152.306 159.118C152.028 159.737 151.742 160.185 151.448 160.463C151.154 160.742 150.706 160.881 150.102 160.881ZM156.668 148.771L153.977 155.197L153.327 154.083H160.078L159.429 155.197L156.714 148.771H156.668ZM169.026 165.057C168.377 165.057 167.874 164.879 167.518 164.523C167.163 164.168 166.985 163.65 166.985 162.969V151.114C166.985 150.449 167.155 149.938 167.495 149.583C167.851 149.227 168.354 149.049 169.003 149.049C169.668 149.049 170.171 149.227 170.511 149.583C170.867 149.938 171.045 150.449 171.045 151.114V152.459L170.79 151.323C171.006 150.627 171.455 150.07 172.135 149.652C172.831 149.219 173.62 149.003 174.502 149.003C175.492 149.003 176.358 149.242 177.1 149.722C177.858 150.201 178.446 150.882 178.863 151.763C179.281 152.645 179.49 153.712 179.49 154.965C179.49 156.187 179.281 157.246 178.863 158.143C178.446 159.041 177.858 159.729 177.1 160.208C176.358 160.688 175.492 160.927 174.502 160.927C173.651 160.927 172.885 160.726 172.205 160.324C171.524 159.922 171.068 159.396 170.836 158.747H171.114V162.969C171.114 163.65 170.929 164.168 170.558 164.523C170.202 164.879 169.692 165.057 169.026 165.057ZM173.202 157.888C173.62 157.888 173.984 157.788 174.293 157.587C174.618 157.37 174.873 157.053 175.058 156.635C175.244 156.202 175.337 155.646 175.337 154.965C175.337 153.929 175.136 153.186 174.734 152.738C174.332 152.274 173.821 152.042 173.202 152.042C172.785 152.042 172.414 152.142 172.089 152.343C171.764 152.545 171.509 152.862 171.323 153.295C171.138 153.712 171.045 154.269 171.045 154.965C171.045 155.986 171.246 156.728 171.648 157.192C172.05 157.656 172.568 157.888 173.202 157.888ZM183.645 165.057C182.996 165.057 182.493 164.879 182.137 164.523C181.781 164.168 181.604 163.65 181.604 162.969V151.114C181.604 150.449 181.774 149.938 182.114 149.583C182.47 149.227 182.972 149.049 183.622 149.049C184.287 149.049 184.79 149.227 185.13 149.583C185.486 149.938 185.664 150.449 185.664 151.114V152.459L185.408 151.323C185.625 150.627 186.073 150.07 186.754 149.652C187.45 149.219 188.239 149.003 189.12 149.003C190.11 149.003 190.976 149.242 191.719 149.722C192.477 150.201 193.064 150.882 193.482 151.763C193.9 152.645 194.108 153.712 194.108 154.965C194.108 156.187 193.9 157.246 193.482 158.143C193.064 159.041 192.477 159.729 191.719 160.208C190.976 160.688 190.11 160.927 189.12 160.927C188.27 160.927 187.504 160.726 186.824 160.324C186.143 159.922 185.687 159.396 185.455 158.747H185.733V162.969C185.733 163.65 185.548 164.168 185.176 164.523C184.821 164.879 184.31 165.057 183.645 165.057ZM187.821 157.888C188.239 157.888 188.602 157.788 188.912 157.587C189.236 157.37 189.492 157.053 189.677 156.635C189.863 156.202 189.956 155.646 189.956 154.965C189.956 153.929 189.755 153.186 189.352 152.738C188.95 152.274 188.44 152.042 187.821 152.042C187.404 152.042 187.032 152.142 186.708 152.343C186.383 152.545 186.128 152.862 185.942 153.295C185.756 153.712 185.664 154.269 185.664 154.965C185.664 155.986 185.865 156.728 186.267 157.192C186.669 157.656 187.187 157.888 187.821 157.888Z" fill="#090A0A"/>
</svg>
